<svg width="120" height="119" viewBox="0 0 120 119" fill="none" xmlns="http://www.w3.org/2000/svg">
<path d="M59.923 117.08C91.2475 117.08 116.641 91.6865 116.641 60.362C116.641 29.0375 91.2475 3.644 59.923 3.644C28.5985 3.644 3.20502 29.0375 3.20502 60.362C3.20502 91.6865 28.5985 117.08 59.923 117.08Z" fill="#00A0FA"/>
<path fill-rule="evenodd" clip-rule="evenodd" d="M60.398 26.831C60.462 26.904 60.555 26.884 60.635 26.903C61.466 27.104 62.04 27.6 62.295 28.417C62.629 29.486 62.136 30.601 61.115 31.087C60.801 31.135 60.771 31.342 60.773 31.616C60.783 33.635 60.778 35.654 60.778 37.674C60.778 37.748 60.776 37.823 60.779 37.897C60.78 37.937 60.766 37.985 60.809 38.011C60.858 38.042 60.887 37.995 60.915 37.97C60.971 37.92 61.021 37.866 61.074 37.813C62.043 36.844 63.012 35.875 63.982 34.905C64.034 34.853 64.086 34.799 64.141 34.748C64.328 34.576 64.547 34.48 64.804 34.484C64.921 34.485 65.038 34.484 65.155 34.484C66.611 34.484 68.067 34.486 69.523 34.487C69.598 34.487 69.672 34.486 69.747 34.486C69.858 34.485 69.956 34.447 70.035 34.37C70.33 34.078 70.621 33.784 70.917 33.493C70.987 33.425 70.957 33.36 70.925 33.292C70.752 32.929 70.687 32.547 70.713 32.146C70.776 31.175 71.531 30.336 72.484 30.145C73.607 29.92 74.871 30.624 75.102 31.942C75.31 33.135 74.566 34.199 73.436 34.48C72.999 34.588 72.572 34.549 72.151 34.403C72.081 34.378 72.011 34.351 71.945 34.317C71.855 34.272 71.787 34.294 71.718 34.363C71.494 34.591 71.266 34.813 71.041 35.039C70.913 35.166 70.784 35.293 70.66 35.424C70.488 35.605 70.28 35.685 70.032 35.682C69.724 35.679 69.416 35.68 69.108 35.682C69.048 35.682 68.988 35.692 68.909 35.699C68.954 35.816 69.033 35.872 69.098 35.937C69.6 36.441 70.104 36.943 70.607 37.448C70.674 37.515 70.745 37.583 70.798 37.661C70.962 37.897 70.941 38.193 70.754 38.394C70.554 38.609 70.251 38.648 70 38.483C69.913 38.425 69.836 38.348 69.762 38.273C69.01 37.523 68.259 36.77 67.508 36.019C67.455 35.966 67.399 35.916 67.351 35.86C67.232 35.717 67.08 35.675 66.898 35.677C66.314 35.683 65.729 35.685 65.144 35.677C64.959 35.675 64.824 35.741 64.696 35.87C63.452 37.12 62.204 38.367 60.955 39.612C60.835 39.731 60.771 39.856 60.772 40.032C60.778 41.712 60.776 43.39 60.777 45.069C60.777 45.11 60.784 45.15 60.788 45.19C60.892 45.212 60.924 45.129 60.973 45.082C61.689 44.37 62.402 43.655 63.116 42.941C63.183 42.874 63.25 42.804 63.319 42.738C63.48 42.585 63.671 42.504 63.894 42.502C64 42.502 64.107 42.501 64.213 42.502C67.763 42.503 71.312 42.505 74.861 42.506C74.925 42.506 74.989 42.504 75.052 42.507C75.245 42.516 75.4 42.445 75.536 42.308C76.442 41.396 77.35 40.487 78.258 39.576C78.288 39.546 78.317 39.513 78.345 39.482C78.377 39.448 78.383 39.406 78.366 39.365C78.332 39.276 78.29 39.189 78.257 39.099C77.818 37.93 78.45 36.495 79.84 36.179C81.322 35.844 82.511 36.992 82.551 38.241C82.585 39.333 81.867 40.275 80.793 40.512C80.402 40.598 80.011 40.576 79.63 40.442C79.54 40.41 79.451 40.376 79.362 40.34C79.305 40.318 79.259 40.331 79.216 40.37C79.185 40.398 79.155 40.43 79.125 40.459C78.509 41.075 77.892 41.691 77.276 42.308C77.238 42.345 77.201 42.383 77.17 42.425C77.149 42.454 77.163 42.495 77.195 42.497C77.29 42.506 77.385 42.505 77.481 42.505C79.426 42.506 81.371 42.507 83.315 42.507C83.421 42.507 83.528 42.503 83.634 42.514C83.967 42.546 84.188 42.786 84.184 43.102C84.181 43.42 83.955 43.654 83.622 43.678C83.516 43.687 83.409 43.682 83.303 43.682C79.286 43.682 75.269 43.682 71.252 43.682C71.146 43.682 71.04 43.684 70.933 43.687C70.891 43.688 70.863 43.746 70.89 43.778C70.946 43.841 71.004 43.904 71.063 43.965C71.466 44.374 71.87 44.782 72.271 45.193C72.337 45.26 72.405 45.331 72.454 45.411C72.599 45.646 72.554 45.955 72.356 46.14C72.154 46.329 71.849 46.354 71.623 46.192C71.537 46.13 71.464 46.05 71.39 45.975C70.74 45.318 70.091 44.66 69.441 44.001C69.381 43.94 69.321 43.88 69.262 43.819C69.167 43.723 69.053 43.677 68.918 43.681C68.865 43.683 68.812 43.681 68.759 43.681C67.314 43.68 65.868 43.68 64.423 43.68C64.359 43.68 64.296 43.68 64.232 43.68C64.109 43.683 64.005 43.729 63.917 43.813C63.895 43.834 63.872 43.858 63.849 43.88C62.887 44.842 61.927 45.805 60.962 46.764C60.832 46.893 60.762 47.029 60.771 47.214C60.781 47.415 60.774 47.617 60.774 47.819C60.774 54.95 60.774 62.081 60.774 69.212C60.774 69.694 60.838 69.629 60.352 69.634C60.15 69.637 59.948 69.637 59.746 69.633C59.609 69.631 59.589 69.606 59.584 69.459C59.582 69.385 59.583 69.311 59.583 69.236C59.584 63.22 59.586 57.206 59.587 51.191C59.587 50.601 59.584 50.591 59.174 50.182C57.625 48.635 56.076 47.087 54.527 45.54C54.467 45.48 54.407 45.42 54.346 45.36C54.164 45.181 54.162 45.175 53.913 45.281C52.796 45.753 51.459 45.227 50.993 44.038C50.456 42.668 51.387 41.214 52.766 41.036C53.952 40.883 55.026 41.693 55.244 42.836C55.322 43.246 55.269 43.638 55.134 44.025C55.109 44.095 55.078 44.164 55.051 44.232C55.032 44.277 55.045 44.318 55.072 44.351C55.105 44.393 55.145 44.428 55.182 44.465C56.579 45.863 57.977 47.261 59.376 48.657C59.425 48.707 59.46 48.781 59.545 48.78C59.604 48.728 59.58 48.66 59.58 48.601C59.583 47.113 59.579 45.625 59.589 44.137C59.591 43.908 59.485 43.763 59.338 43.616C57.939 42.22 56.542 40.821 55.145 39.424C55.032 39.311 54.918 39.199 54.807 39.085C54.705 38.98 54.585 38.927 54.437 38.933C54.31 38.936 54.182 38.933 54.054 38.933C51.727 38.933 49.4 38.935 47.072 38.936C46.976 38.936 46.881 38.936 46.785 38.936C46.505 38.936 46.27 38.839 46.072 38.637C45.671 38.228 45.262 37.824 44.857 37.417C44.805 37.365 44.743 37.318 44.7 37.26C44.553 37.054 44.379 37.003 44.161 37.15C43.238 37.456 42.406 37.302 41.738 36.584C41.1 35.898 40.959 35.078 41.324 34.218C41.684 33.37 42.356 32.92 43.283 32.874C44.349 32.821 45.262 33.565 45.5 34.53C45.606 34.964 45.588 35.394 45.447 35.818C45.417 35.909 45.38 35.997 45.343 36.085C45.315 36.151 45.324 36.208 45.374 36.259C45.442 36.326 45.508 36.395 45.576 36.463C45.944 36.832 46.315 37.197 46.678 37.57C46.798 37.694 46.928 37.746 47.101 37.745C48.111 37.739 49.12 37.741 50.13 37.74C50.172 37.74 50.215 37.737 50.257 37.734C50.299 37.73 50.322 37.674 50.292 37.64C50.236 37.577 50.178 37.514 50.118 37.454C49.871 37.205 49.622 36.958 49.375 36.709C49.25 36.585 49.172 36.441 49.172 36.258C49.173 35.81 49.629 35.534 50.03 35.74C50.136 35.795 50.216 35.88 50.299 35.962C50.78 36.442 51.261 36.924 51.742 37.405C51.787 37.45 51.836 37.492 51.876 37.541C52 37.692 52.155 37.752 52.352 37.744C52.649 37.732 52.947 37.741 53.245 37.74C53.712 37.74 54.181 37.754 54.647 37.733C54.996 37.718 55.253 37.851 55.492 38.093C56.748 39.361 58.013 40.621 59.276 41.883C59.356 41.963 59.441 42.037 59.542 42.131C59.595 42.014 59.58 41.919 59.58 41.827C59.581 40.573 59.582 39.319 59.582 38.065C59.582 37.725 59.577 37.384 59.585 37.045C59.589 36.862 59.539 36.711 59.402 36.59C59.355 36.547 59.312 36.499 59.267 36.454C57.313 34.472 55.358 32.487 53.405 30.504C53.316 30.414 53.232 30.317 53.15 30.22C53.014 30.06 53.014 29.73 53.139 29.559C53.283 29.363 53.479 29.279 53.722 29.309C53.821 29.32 53.907 29.362 53.98 29.423C54.053 29.485 54.122 29.552 54.189 29.619C55.889 31.345 57.588 33.072 59.292 34.796C59.367 34.872 59.408 35.001 59.545 35.003C59.599 34.904 59.573 34.797 59.573 34.694C59.577 33.653 59.578 32.611 59.58 31.57C59.58 31.507 59.577 31.442 59.58 31.379C59.586 31.27 59.544 31.204 59.436 31.163C59.116 31.04 58.83 30.862 58.587 30.614C57.438 29.434 57.951 27.435 59.526 26.953C59.666 26.91 59.824 26.926 59.948 26.83C60.101 26.831 60.249 26.831 60.398 26.831Z" fill="white"/>
<path fill-rule="evenodd" clip-rule="evenodd" d="M50.437 87.768C50.391 87.715 50.324 87.728 50.264 87.717C50.116 87.691 49.968 87.67 49.821 87.636C49.36 87.53 49.016 87.244 48.714 86.898C48.575 86.739 48.452 86.565 48.339 86.384C46.217 82.962 44.096 79.54 41.973 76.119C41.386 75.17 40.798 74.223 40.209 73.276C40.172 73.215 40.133 73.155 40.103 73.091C40.088 73.062 40.088 73.021 40.141 73.016C40.203 73.011 40.264 73.011 40.326 73.011C41.451 73.011 42.575 73.011 43.699 73.011C43.752 73.011 43.806 73.013 43.858 73.013C43.906 73.014 43.943 73.034 43.969 73.075C44.008 73.134 44.047 73.193 44.083 73.253C45.738 75.954 47.394 78.655 49.049 81.356C49.558 82.186 50.067 83.016 50.575 83.847C50.625 83.929 50.679 84.01 50.735 84.098C50.838 84.063 50.861 83.968 50.905 83.899C51.295 83.265 51.681 82.63 52.069 81.996C53.422 79.783 54.772 77.571 56.124 75.358C56.548 74.665 56.972 73.969 57.396 73.274C57.419 73.237 57.447 73.201 57.465 73.161C57.52 73.039 57.614 73.01 57.742 73.011C58.875 73.015 60.008 73.013 61.141 73.013C61.176 73.013 61.211 73.013 61.247 73.015C61.317 73.019 61.345 73.06 61.313 73.117C61.284 73.172 61.25 73.224 61.217 73.275C58.909 76.977 56.602 80.68 54.293 84.382C53.905 85.005 53.517 85.629 53.128 86.251C52.959 86.522 52.779 86.782 52.561 87.02C52.177 87.438 51.704 87.663 51.143 87.716C51.065 87.726 50.982 87.711 50.915 87.769C50.755 87.768 50.596 87.768 50.437 87.768Z" fill="white"/>
<path fill-rule="evenodd" clip-rule="evenodd" d="M29.191 73.003C30.172 73.004 31.153 73.004 32.134 73.004C32.214 73.004 32.294 73.007 32.372 73.009C32.403 73.01 32.415 73.033 32.43 73.057C32.31 73.16 32.163 73.141 32.024 73.141C31.273 73.142 30.522 73.141 29.771 73.142C29.4 73.142 29.384 73.158 29.384 73.531C29.383 76.582 29.384 79.632 29.381 82.68C29.381 82.842 29.425 83.021 29.289 83.159C29.226 83.097 29.264 82.992 29.191 82.934C29.191 79.623 29.191 76.313 29.191 73.003Z" fill="white"/>
<path fill-rule="evenodd" clip-rule="evenodd" d="M67.688 87.413C65.767 87.413 63.847 87.413 61.926 87.413C61.565 87.413 61.603 87.444 61.603 87.082C61.601 86.391 61.602 85.7 61.602 85.01C61.602 84.967 61.601 84.922 61.602 84.877C61.607 84.697 61.607 84.695 61.777 84.691C61.839 84.689 61.901 84.691 61.963 84.691C63.255 84.691 64.548 84.691 65.84 84.691C68.035 84.691 70.231 84.691 72.425 84.691C72.708 84.691 72.992 84.692 73.272 84.633C73.402 84.607 73.53 84.572 73.652 84.522C73.859 84.433 74.002 84.285 74.076 84.071C74.135 83.904 74.168 83.731 74.169 83.552C74.169 83.242 74.167 82.931 74.17 82.621C74.17 82.486 74.145 82.356 74.111 82.228C74.031 81.927 73.847 81.713 73.554 81.597C73.321 81.504 73.078 81.461 72.829 81.449C72.679 81.441 72.528 81.444 72.378 81.444C70.191 81.444 68.004 81.443 65.819 81.444C65.296 81.444 64.775 81.422 64.258 81.34C63.882 81.279 63.514 81.183 63.165 81.026C62.46 80.704 62.009 80.168 61.809 79.42C61.718 79.077 61.662 78.727 61.647 78.372C61.619 77.727 61.616 77.081 61.648 76.435C61.672 75.956 61.755 75.486 61.91 75.031C62.2 74.177 62.765 73.598 63.621 73.312C63.797 73.251 63.977 73.202 64.158 73.162C64.618 73.058 65.085 73.024 65.554 73.015C65.953 73.007 66.351 73.012 66.749 73.012C69.918 73.012 73.087 73.012 76.256 73.012C76.612 73.012 76.579 72.97 76.58 73.343C76.581 74.032 76.58 74.723 76.58 75.413C76.58 75.449 76.58 75.484 76.58 75.52C76.578 75.743 76.578 75.744 76.365 75.748C76.304 75.748 76.242 75.748 76.18 75.748C72.878 75.748 69.576 75.748 66.275 75.748C66.08 75.748 65.885 75.752 65.691 75.759C65.513 75.767 65.342 75.81 65.175 75.875C64.921 75.976 64.749 76.153 64.665 76.415C64.611 76.584 64.574 76.757 64.57 76.936C64.565 77.219 64.566 77.502 64.567 77.786C64.568 77.938 64.602 78.084 64.647 78.227C64.734 78.499 64.915 78.681 65.183 78.775C65.393 78.849 65.613 78.878 65.834 78.886C65.958 78.891 66.082 78.89 66.206 78.89C68.34 78.89 70.473 78.89 72.606 78.89C73.066 78.89 73.527 78.896 73.984 78.953C74.397 79.006 74.806 79.08 75.199 79.219C76.172 79.566 76.767 80.246 76.98 81.257C77.047 81.577 77.095 81.901 77.097 82.23C77.101 82.832 77.102 83.434 77.096 84.037C77.092 84.418 77.032 84.794 76.941 85.164C76.718 86.078 76.158 86.69 75.29 87.034C74.876 87.197 74.445 87.288 74.005 87.346C73.547 87.409 73.088 87.414 72.627 87.414C70.98 87.415 69.335 87.413 67.688 87.413Z" fill="white"/>
<path fill-rule="evenodd" clip-rule="evenodd" d="M48.342 56.003C48.238 55.93 48.152 55.954 48.071 55.951C46.807 55.909 45.542 55.923 44.278 55.92C42.8 55.917 41.323 55.921 39.846 55.923C39.633 55.923 39.42 55.938 39.208 55.927C38.96 55.913 38.766 55.96 38.714 56.241C38.281 57.1 37.586 57.567 36.624 57.548C35.429 57.525 34.661 56.611 34.5 55.691C34.277 54.418 35.268 53.077 36.765 53.118C37.567 53.139 38.178 53.527 38.598 54.211C38.637 54.274 38.684 54.338 38.701 54.408C38.764 54.672 38.926 54.732 39.187 54.73C41.344 54.719 43.501 54.725 45.659 54.722C45.772 54.722 45.888 54.743 46.012 54.698C45.985 54.588 45.901 54.535 45.836 54.471C45.119 53.76 44.4 53.051 43.682 52.341C43.614 52.275 43.543 52.209 43.483 52.135C43.29 51.897 43.304 51.565 43.504 51.349C43.72 51.116 44.113 51.122 44.313 51.311C44.421 51.414 44.529 51.516 44.635 51.621C45.587 52.563 46.538 53.505 47.489 54.448C47.542 54.5 47.594 54.552 47.648 54.605C47.743 54.698 47.857 54.748 47.992 54.747C48.066 54.747 48.141 54.748 48.215 54.748C50.51 54.748 52.806 54.747 55.101 54.747C55.461 54.747 55.477 54.783 55.476 54.389C55.474 53.708 55.469 53.029 55.481 52.349C55.485 52.126 55.41 51.97 55.255 51.817C54.109 50.679 52.965 49.539 51.83 48.389C51.649 48.205 51.462 48.137 51.21 48.138C47.884 48.144 44.557 48.142 41.231 48.142C41.167 48.142 41.103 48.14 41.039 48.143C40.858 48.15 40.708 48.079 40.577 47.961C40.529 47.918 40.486 47.871 40.441 47.826C39.629 47.014 38.816 46.204 38.004 45.392C37.966 45.355 37.926 45.32 37.892 45.279C37.819 45.197 37.745 45.184 37.639 45.234C37.327 45.379 37 45.457 36.652 45.452C35.572 45.438 34.663 44.628 34.492 43.558C34.312 42.428 35.115 41.058 36.635 41.019C37.808 40.988 38.625 41.8 38.845 42.731C38.946 43.158 38.908 43.575 38.772 43.986C38.749 44.057 38.727 44.13 38.691 44.195C38.635 44.297 38.662 44.37 38.74 44.447C39.028 44.73 39.311 45.017 39.597 45.303C40.085 45.792 40.576 46.278 41.059 46.771C41.196 46.912 41.344 46.971 41.539 46.97C43.165 46.965 44.791 46.966 46.417 46.964C46.459 46.964 46.502 46.962 46.544 46.958C46.586 46.955 46.615 46.896 46.587 46.866C46.538 46.81 46.486 46.757 46.434 46.704C46.179 46.448 45.924 46.191 45.667 45.936C45.542 45.812 45.459 45.671 45.459 45.488C45.457 45.037 45.903 44.755 46.308 44.953C46.415 45.005 46.496 45.091 46.578 45.174C47.089 45.686 47.605 46.192 48.107 46.71C48.282 46.892 48.468 46.976 48.724 46.972C49.67 46.959 50.616 46.965 51.561 46.966C51.677 46.966 51.795 46.968 51.91 46.986C52.049 47.008 52.17 47.079 52.273 47.174C52.351 47.245 52.426 47.321 52.501 47.397C53.749 48.644 54.996 49.891 56.243 51.139C56.288 51.184 56.333 51.229 56.378 51.274C56.554 51.446 56.646 51.654 56.645 51.901C56.645 51.975 56.646 52.05 56.646 52.125C56.645 57.843 56.645 63.56 56.643 69.277C56.643 69.67 56.681 69.631 56.282 69.631C56.048 69.633 55.815 69.63 55.581 69.627C55.521 69.626 55.481 69.596 55.478 69.532C55.475 69.426 55.473 69.319 55.473 69.213C55.473 64.942 55.473 60.669 55.473 56.398C55.473 56.302 55.475 56.207 55.472 56.111C55.467 55.959 55.44 55.932 55.281 55.924C55.207 55.92 55.132 55.923 55.058 55.923C53.549 55.922 52.04 55.921 50.531 55.921C50.457 55.921 50.383 55.922 50.308 55.922C50.208 55.923 50.121 55.957 50.05 56.026C49.997 56.079 49.944 56.13 49.891 56.183C49.005 57.071 48.119 57.958 47.233 58.844C47.188 58.89 47.145 58.937 47.098 58.981C47.033 59.041 47.033 59.106 47.068 59.181C47.153 59.365 47.219 59.555 47.257 59.754C47.497 61.004 46.602 62.341 45.116 62.382C44.073 62.41 43.198 61.716 42.937 60.751C42.601 59.51 43.375 58.174 44.792 57.961C45.155 57.907 45.513 57.958 45.858 58.085C45.928 58.11 45.996 58.139 46.064 58.17C46.12 58.196 46.167 58.181 46.208 58.142C46.239 58.113 46.269 58.083 46.299 58.053C46.938 57.414 47.577 56.776 48.215 56.137C48.257 56.101 48.291 56.06 48.342 56.003Z" fill="white"/>
<path fill-rule="evenodd" clip-rule="evenodd" d="M63.712 60.651C63.712 57.792 63.712 54.933 63.712 52.074C63.712 52.011 63.713 51.947 63.712 51.884C63.709 51.659 63.792 51.469 63.947 51.31C64.073 51.181 64.202 51.054 64.33 50.927C64.983 50.272 65.644 49.625 66.285 48.96C66.54 48.694 66.823 48.581 67.189 48.582C69.856 48.591 72.524 48.584 75.191 48.594C75.456 48.595 75.648 48.564 75.701 48.269C76.072 47.445 76.945 46.868 77.982 46.978C78.878 47.072 79.677 47.76 79.879 48.673C80.231 50.266 78.951 51.408 77.766 51.397C76.877 51.387 76.226 50.99 75.774 50.239C75.741 50.184 75.713 50.127 75.687 50.069C75.537 49.739 75.622 49.782 75.217 49.781C72.667 49.779 70.116 49.779 67.566 49.779C67.524 49.779 67.481 49.782 67.439 49.779C67.231 49.758 67.077 49.844 66.933 49.991C66.329 50.605 65.72 51.213 65.107 51.817C64.969 51.953 64.896 52.095 64.898 52.293C64.905 53.036 64.901 53.78 64.901 54.524C64.901 54.535 64.901 54.545 64.901 54.555C64.907 54.701 64.93 54.727 65.063 54.733C65.159 54.737 65.255 54.736 65.351 54.736C69.729 54.736 74.108 54.736 78.486 54.736C79.379 54.736 80.271 54.736 81.164 54.736C81.249 54.735 81.334 54.736 81.419 54.733C81.488 54.731 81.54 54.702 81.566 54.633C81.598 54.555 81.627 54.475 81.666 54.399C82.088 53.562 82.772 53.112 83.706 53.118C84.823 53.125 85.789 53.954 85.889 55.161C85.988 56.369 85.119 57.341 84.05 57.516C83.039 57.682 82.069 57.179 81.656 56.234C81.559 56.012 81.449 55.942 81.214 55.943C78.249 55.951 75.284 55.948 72.319 55.951C72.222 55.951 72.08 55.889 72.037 56.005C72.007 56.084 72.133 56.154 72.196 56.222C72.778 56.842 73.381 57.442 73.99 58.035C74.036 58.08 74.082 58.124 74.131 58.166C74.174 58.203 74.223 58.213 74.278 58.187C74.336 58.162 74.394 58.135 74.454 58.111C75.646 57.622 77.168 58.248 77.463 59.75C77.737 61.146 76.671 62.299 75.46 62.374C74.241 62.451 73.333 61.636 73.121 60.633C73.038 60.24 73.063 59.851 73.185 59.469C73.214 59.377 73.243 59.285 73.287 59.201C73.343 59.095 73.309 59.021 73.23 58.95C73.183 58.907 73.14 58.859 73.095 58.814C72.217 57.934 71.337 57.054 70.458 56.175C70.413 56.129 70.368 56.085 70.322 56.04C70.242 55.965 70.147 55.922 70.035 55.922C69.972 55.923 69.908 55.921 69.844 55.921C68.324 55.922 66.805 55.922 65.285 55.924C64.88 55.924 64.902 55.892 64.902 56.299C64.902 60.592 64.902 64.886 64.901 69.18C64.901 69.702 64.969 69.627 64.443 69.632C64.241 69.635 64.039 69.632 63.837 69.63C63.763 69.629 63.718 69.594 63.717 69.515C63.716 69.419 63.715 69.324 63.715 69.229C63.713 66.369 63.713 63.51 63.712 60.651Z" fill="white"/>
<path fill-rule="evenodd" clip-rule="evenodd" d="M29.289 83.158C29.293 83.096 29.301 83.036 29.301 82.973C29.3 79.771 29.299 76.571 29.298 73.368C29.298 73.307 29.297 73.245 29.299 73.183C29.305 73.085 29.329 73.064 29.432 73.058C29.502 73.054 29.574 73.056 29.644 73.056C30.573 73.056 31.501 73.056 32.43 73.056C32.434 73.161 32.443 73.267 32.443 73.373C32.443 76.319 32.443 79.268 32.443 82.216C32.443 82.57 32.463 82.924 32.531 83.271C32.66 83.927 33.051 84.339 33.688 84.522C34.066 84.631 34.455 84.655 34.843 84.672C35.011 84.679 35.18 84.675 35.348 84.675C37.977 84.675 40.606 84.673 43.235 84.675C43.624 84.675 43.574 84.633 43.576 85.012C43.578 85.71 43.576 86.41 43.576 87.111C43.576 87.18 43.575 87.252 43.573 87.323C43.572 87.376 43.54 87.405 43.491 87.408C43.43 87.415 43.367 87.413 43.305 87.413C40.428 87.413 37.552 87.413 34.674 87.413C34.17 87.413 33.665 87.4 33.164 87.34C32.574 87.268 31.994 87.16 31.438 86.938C30.459 86.544 29.825 85.845 29.535 84.834C29.381 84.287 29.292 83.728 29.289 83.158Z" fill="white"/>
<path d="M96.098 87.342C96.09 87.337 96.085 87.331 96.077 87.328C93.402 85.782 90.728 84.237 88.055 82.692C88.032 82.677 88.009 82.667 87.985 82.653C87.97 82.644 87.957 82.632 87.942 82.622C87.935 82.618 87.926 82.613 87.921 82.605C87.917 82.599 87.919 82.589 87.913 82.544C88.023 82.544 88.12 82.546 88.216 82.544C89.19 82.536 90.163 82.561 91.136 82.523C91.73 82.498 92.32 82.447 92.904 82.344C93.376 82.262 93.834 82.128 94.266 81.914C95 81.552 95.506 80.986 95.776 80.214C95.896 79.868 95.972 79.514 96.001 79.151C96.075 78.25 96.073 77.347 95.999 76.446C95.965 76.041 95.88 75.641 95.743 75.258C95.484 74.531 95.016 73.991 94.327 73.641C94.049 73.502 93.758 73.397 93.459 73.316C92.9 73.168 92.329 73.103 91.755 73.062C91.181 73.022 90.606 73.009 90.03 73.009C86.498 73.013 82.967 73.011 79.435 73.011C79.05 73.013 79.081 72.96 79.081 73.367C79.081 77.925 79.081 82.483 79.081 87.042C79.081 87.104 79.081 87.167 79.081 87.23C79.086 87.399 79.095 87.41 79.261 87.413C79.323 87.416 79.386 87.413 79.448 87.413C80.245 87.413 81.041 87.416 81.837 87.411C81.975 87.411 82.119 87.448 82.251 87.374C82.293 87.244 82.271 87.111 82.271 86.979C82.273 85.536 82.272 84.094 82.273 82.651C82.273 82.512 82.265 82.371 82.295 82.237C82.369 82.225 82.408 82.266 82.452 82.293C82.625 82.399 82.797 82.508 82.971 82.616C85.473 84.171 87.976 85.725 90.477 87.284C90.625 87.377 90.775 87.418 90.951 87.416C92.579 87.411 94.208 87.413 95.837 87.413C95.907 87.413 95.979 87.413 96.049 87.411C96.085 87.411 96.119 87.408 96.118 87.358C96.112 87.353 96.105 87.347 96.098 87.342ZM82.565 80.112C82.274 80.111 82.273 80.146 82.273 79.826C82.274 78.552 82.273 77.279 82.273 76.005C82.273 75.969 82.272 75.934 82.274 75.898C82.279 75.733 82.288 75.723 82.458 75.72C82.503 75.718 82.547 75.72 82.591 75.72C85.123 75.72 87.653 75.72 90.184 75.72C90.671 75.72 91.157 75.741 91.639 75.813C91.788 75.834 91.932 75.876 92.073 75.931C92.389 76.056 92.603 76.279 92.71 76.601C92.772 76.786 92.814 76.976 92.82 77.171C92.836 77.666 92.837 78.161 92.82 78.657C92.814 78.845 92.774 79.025 92.718 79.204C92.616 79.54 92.394 79.766 92.072 79.897C91.832 79.995 91.579 80.04 91.323 80.061C90.917 80.096 90.51 80.115 90.103 80.114C88.943 80.109 87.785 80.112 86.625 80.112C85.272 80.112 83.918 80.114 82.565 80.112Z" fill="white"/>
</svg>
