<svg xmlns="http://www.w3.org/2000/svg" width="1219.027" height="1014.625" viewBox="0 0 1219.027 1014.625">
  <g id="Group_16" data-name="Group 16" transform="translate(-0.467 -0.83)">
    <path id="Path_4042" data-name="Path 4042" d="M463.924.854c1.517,1.73,3.721,1.256,5.617,1.707,19.7,4.764,33.3,16.521,39.347,35.886,7.917,25.338-3.769,51.767-27.969,63.286-7.443,1.138-8.154,6.044-8.106,12.539.237,47.856.119,95.712.119,143.591,0,1.754-.047,3.532.024,5.286.024.948-.308,2.086.711,2.7,1.161.735,1.849-.379,2.513-.972,1.327-1.185,2.512-2.465,3.769-3.721l68.928-68.928c1.233-1.233,2.465-2.512,3.769-3.721a22.085,22.085,0,0,1,15.715-6.258c2.773.024,5.546,0,8.32,0q51.767,0,103.534.071c1.778,0,3.532-.024,5.31-.024a9.6,9.6,0,0,0,6.826-2.75c6.992-6.921,13.89-13.89,20.906-20.787,1.659-1.612.948-3.152.19-4.764a53.871,53.871,0,0,1-5.025-27.163c1.493-23.015,19.389-42.9,41.978-47.429C777.014,74.072,806.974,90.758,812.45,122c4.93,28.277-12.7,53.5-39.489,60.158-10.358,2.56-20.479,1.635-30.458-1.825a40.037,40.037,0,0,1-4.883-2.038c-2.133-1.067-3.745-.545-5.381,1.09-5.309,5.4-10.714,10.666-16.047,16.023-3.034,3.01-6.092,6.021-9.031,9.126a19.179,19.179,0,0,1-14.885,6.115c-7.3-.071-14.6-.047-21.9,0-1.422,0-2.844.237-4.717.4,1.067,2.773,2.939,4.1,4.48,5.641q17.848,17.919,35.767,35.815a36.478,36.478,0,0,1,4.527,5.049,13.794,13.794,0,0,1-18.915,19.484,37.371,37.371,0,0,1-5.641-4.978Q659.14,245.4,632.451,218.635c-1.256-1.256-2.584-2.441-3.721-3.769-2.821-3.389-6.423-4.385-10.737-4.338-13.842.142-27.709.19-41.575,0A13.8,13.8,0,0,0,565.8,215.1q-44.229,44.443-88.672,88.7a13,13,0,0,0-4.338,9.955c.142,39.821.095,79.594.119,119.391a28.654,28.654,0,0,0,.261,2.868c2.465.521,3.224-1.446,4.385-2.56q25.457-25.315,50.8-50.748c1.588-1.588,3.176-3.247,4.812-4.812a19.424,19.424,0,0,1,13.629-5.594c2.513,0,5.049-.024,7.561,0q126.217.036,252.387.095c1.517,0,3.034-.047,4.527.024a14.5,14.5,0,0,0,11.472-4.717q32.212-32.425,64.519-64.756c.711-.711,1.4-1.493,2.062-2.228a2.477,2.477,0,0,0,.5-2.773c-.806-2.11-1.8-4.172-2.584-6.3-10.406-27.709,4.575-61.722,37.521-69.212,35.128-7.94,63.31,19.27,64.258,48.875.806,25.883-16.213,48.211-41.67,53.829a49.685,49.685,0,0,1-27.566-1.659c-2.133-.759-4.243-1.564-6.352-2.418a3.083,3.083,0,0,0-3.461.711c-.735.664-1.446,1.422-2.157,2.11q-21.9,21.9-43.826,43.826a23.086,23.086,0,0,0-2.513,2.773,1.038,1.038,0,0,0,.593,1.707c2.252.213,4.5.19,6.779.19q69.153.036,138.282.047a73.2,73.2,0,0,1,7.561.166c7.893.758,13.131,6.447,13.037,13.937-.071,7.538-5.428,13.084-13.321,13.653-2.513.213-5.049.095-7.561.095H721.194c-2.512,0-5.025.047-7.561.119a1.394,1.394,0,0,0-1.019,2.157c1.327,1.493,2.7,2.987,4.1,4.432q14.328,14.542,28.633,29.107a30.03,30.03,0,0,1,4.338,5.167,13.873,13.873,0,0,1-2.323,17.279,13.69,13.69,0,0,1-17.374,1.233,45.354,45.354,0,0,1-5.523-5.143q-23.11-23.359-46.2-46.789c-1.422-1.446-2.844-2.868-4.243-4.314a10.556,10.556,0,0,0-8.154-3.271c-1.256.047-2.513,0-3.769,0q-51.376-.036-102.775-.024H554.8a10.861,10.861,0,0,0-7.466,3.152c-.521.5-1.067,1.067-1.612,1.588q-34.2,34.2-68.43,68.359c-3.081,3.058-4.741,6.281-4.527,10.666.237,4.764.071,9.552.071,14.34V1005.4c0,11.425,1.517,9.884-10,10q-7.182.107-14.364-.024c-3.247-.047-3.721-.64-3.84-4.124-.047-1.754-.024-3.508-.024-5.286q.036-213.894.095-427.717c0-13.985-.071-14.222-9.789-23.916q-55.073-55-110.147-110.028c-1.422-1.422-2.844-2.844-4.29-4.266-4.314-4.243-4.361-4.385-10.263-1.873A52.543,52.543,0,0,1,241,408.707c-12.728-32.473,9.339-66.937,42.025-71.156a53.009,53.009,0,0,1,58.735,42.665c1.849,9.718.593,19.01-2.607,28.183-.593,1.659-1.327,3.295-1.967,4.906a2.644,2.644,0,0,0,.5,2.821,31.256,31.256,0,0,0,2.607,2.7q49.669,49.7,99.409,99.362c1.161,1.185,1.991,2.939,4.006,2.915,1.4-1.233.83-2.844.83-4.243.071-35.27-.024-70.539.213-105.809.047-5.428-2.465-8.865-5.949-12.349q-49.74-49.634-99.386-99.362c-2.678-2.678-5.381-5.333-8.012-8.035a11.055,11.055,0,0,0-8.77-3.6c-3.01.071-6.044,0-9.078,0q-82.735,0-165.493.071h-6.8a22.634,22.634,0,0,1-16.9-7.087c-9.5-9.694-19.2-19.27-28.8-28.917a36.769,36.769,0,0,1-3.721-3.721c-3.484-4.883-7.609-6.092-12.776-2.607-21.878,7.253-41.6,3.6-57.432-13.416-15.122-16.26-18.464-35.7-9.813-56.081,8.533-20.1,24.461-30.766,46.434-31.857,25.267-1.256,46.908,16.379,52.549,39.252a54.211,54.211,0,0,1-1.256,30.529c-.711,2.157-1.588,4.243-2.465,6.329a3.46,3.46,0,0,0,.735,4.124c1.612,1.588,3.176,3.224,4.788,4.835,8.723,8.746,17.516,17.4,26.12,26.239a12.8,12.8,0,0,0,10.026,4.148c23.94-.142,47.856-.095,71.8-.119,1,0,2.015-.071,3.01-.142a1.366,1.366,0,0,0,.83-2.228c-1.327-1.493-2.7-2.987-4.124-4.409-5.855-5.9-11.757-11.757-17.611-17.659a14.6,14.6,0,0,1-4.812-10.69,13.76,13.76,0,0,1,20.337-12.278c2.512,1.3,4.409,3.318,6.376,5.262q17.1,17.066,34.2,34.2a45.236,45.236,0,0,1,3.176,3.224c2.939,3.579,6.613,5,11.283,4.812,7.04-.284,14.1-.071,21.167-.095,11.069,0,22.186.332,33.231-.166,8.272-.356,14.364,2.8,20.029,8.533q44.656,45.083,89.691,89.834c1.9,1.9,3.911,3.65,6.3,5.878,1.256-2.773.9-5.025.9-7.206q.036-44.585.047-89.17c0-8.059-.119-16.142.071-24.177.095-4.338-1.09-7.917-4.338-10.785-1.114-1.019-2.133-2.157-3.2-3.224Q367.643,158.477,298.17,87.914c-2.11-2.133-4.1-4.432-6.044-6.732-3.224-3.792-3.224-11.614-.261-15.668a13.982,13.982,0,0,1,13.819-5.926,11.425,11.425,0,0,1,6.115,2.7c1.73,1.47,3.366,3.058,4.954,4.646Q377.2,128.3,437.709,189.646c1.778,1.8,2.75,4.859,6,4.906,1.28-2.347.664-4.883.664-7.324q.142-37.012.166-74.048c0-1.493-.071-3.034,0-4.527.142-2.584-.853-4.148-3.413-5.12A55.676,55.676,0,0,1,421,90.521C393.764,62.552,405.923,15.17,443.255,3.745c3.318-1.019,7.063-.64,10-2.915C456.884.854,460.392.854,463.924.854Z" transform="translate(151.179 0)" fill="#00a0fa" fill-rule="evenodd"/>
    <path id="Path_4043" data-name="Path 4043" d="M329.342,370.2c-2.465-1.73-4.5-1.161-6.423-1.233-29.96-1-59.944-.664-89.9-.735-35.033-.071-70.042.024-105.051.071-5.049,0-10.1.356-15.122.095-5.878-.332-10.477.782-11.709,7.443-10.263,20.361-26.737,31.43-49.539,30.98-28.325-.545-46.529-22.21-50.345-44.016-5.286-30.174,18.2-61.959,53.687-60.987,19.01.5,33.492,9.694,43.447,25.907a17.267,17.267,0,0,1,2.441,4.669c1.493,6.258,5.333,7.68,11.52,7.632,51.127-.261,102.254-.118,153.405-.19,2.678,0,5.428.5,8.367-.569-.64-2.607-2.631-3.864-4.172-5.38q-25.492-25.279-51.057-50.487a57.345,57.345,0,0,1-4.717-4.883,14.162,14.162,0,0,1,.5-18.63c5.12-5.523,14.436-5.381,19.176-.9,2.56,2.441,5.12,4.859,7.632,7.348q33.848,33.492,67.648,67.008c1.256,1.233,2.489,2.465,3.769,3.721a11.166,11.166,0,0,0,8.154,3.366c1.754,0,3.532.024,5.286.024q81.6,0,163.217-.024c8.533,0,8.912.853,8.889-8.486-.047-16.142-.166-32.236.119-48.354.095-5.286-1.683-8.983-5.357-12.61q-40.745-40.461-81.182-81.253c-4.29-4.361-8.723-5.973-14.7-5.949q-118.253.213-236.531.095c-1.517,0-3.034-.047-4.551.024a15.069,15.069,0,0,1-10.951-4.314c-1.138-1.019-2.157-2.133-3.224-3.2Q113.2,147.513,84.3,118.691a35.381,35.381,0,0,1-2.655-2.678c-1.73-1.944-3.484-2.252-6-1.067a53.023,53.023,0,0,1-23.395,5.167c-25.6-.332-47.145-19.531-51.2-44.893-4.267-26.784,14.767-59.257,50.8-60.181,27.8-.735,47.169,18.512,52.383,40.579,2.394,10.121,1.493,20.005-1.73,29.747a27.843,27.843,0,0,1-1.92,4.954c-1.327,2.418-.687,4.148,1.161,5.973,6.826,6.708,13.534,13.511,20.313,20.29,11.567,11.591,23.205,23.11,34.653,34.8a14.589,14.589,0,0,0,11.377,4.717c38.541-.118,77.082-.095,115.623-.142,1,0,2.015-.047,3.01-.142,1-.071,1.683-1.47,1.019-2.181-1.161-1.327-2.394-2.584-3.627-3.84-6.044-6.068-12.088-12.16-18.18-18.2-2.963-2.939-4.93-6.281-4.93-10.619a13.791,13.791,0,0,1,20.124-12.681c2.536,1.233,4.456,3.271,6.4,5.238,12.112,12.136,24.343,24.129,36.242,36.407a18.4,18.4,0,0,0,14.625,6.21c22.423-.308,44.846-.166,67.245-.142a53.638,53.638,0,0,1,8.272.474,16.586,16.586,0,0,1,8.6,4.456c1.849,1.683,3.627,3.484,5.4,5.286q44.372,44.336,88.7,88.7l3.2,3.2a19.942,19.942,0,0,1,6.329,14.862c0,1.754.024,3.532.024,5.309q-.036,203.3-.071,406.55c0,9.315.9,8.391-8.557,8.391-5.546.047-11.069-.024-16.616-.095a2.2,2.2,0,0,1-2.441-2.252c-.071-2.513-.119-5.049-.119-7.561V379.564c0-2.275.047-4.527-.024-6.8-.119-3.6-.758-4.243-4.527-4.432-1.754-.095-3.532-.024-5.286-.024q-53.651-.036-107.3-.047c-1.754,0-3.508.024-5.286.024a8.6,8.6,0,0,0-6.115,2.465c-1.256,1.256-2.512,2.465-3.769,3.721q-31.5,31.572-63,63.073c-1.067,1.09-2.086,2.2-3.2,3.247-1.541,1.422-1.541,2.963-.711,4.741a58.524,58.524,0,0,1,4.48,13.582A52.5,52.5,0,0,1,252.877,521.4a51.936,51.936,0,0,1-51.649-38.659c-7.964-29.415,10.382-61.082,43.969-66.131a50.844,50.844,0,0,1,25.267,2.939c1.659.593,3.271,1.28,4.883,2.015a2.846,2.846,0,0,0,3.413-.664c.735-.687,1.446-1.4,2.157-2.109q22.719-22.719,45.415-45.415A33.8,33.8,0,0,0,329.342,370.2Z" transform="translate(0 322.11)" fill="#00a0fa" fill-rule="evenodd"/>
    <path id="Path_4044" data-name="Path 4044" d="M29.714,345.371v-203.3c0-1.493.024-3.01,0-4.5a18.512,18.512,0,0,1,5.57-13.605c2.987-3.058,6.044-6.068,9.078-9.078C59.84,99.36,75.508,84.025,90.7,68.262c6.044-6.3,12.752-8.983,21.427-8.96,63.215.213,126.454.047,189.67.284,6.281.024,10.832-.711,12.088-7.7a52.6,52.6,0,0,1,54.066-30.6c21.238,2.228,40.176,18.536,44.964,40.176,8.343,37.759-22,64.827-50.084,64.566-21.072-.237-36.5-9.647-47.216-27.448a37.966,37.966,0,0,1-2.062-4.029c-3.555-7.822-1.541-6.8-11.14-6.826q-90.663-.071-181.35-.047c-1,0-2.015.071-3.01,0-4.93-.5-8.58,1.541-11.994,5.025q-21.475,21.83-43.281,43.281c-3.271,3.224-5,6.589-4.954,11.283.166,17.611.071,35.246.071,52.881v.735c.142,3.461.687,4.077,3.84,4.219,2.276.095,4.551.071,6.826.071H443.375c2.015-.024,4.029,0,6.044-.071a3.492,3.492,0,0,0,3.484-2.37c.758-1.849,1.446-3.745,2.37-5.546,10-19.839,26.215-30.506,48.354-30.363,26.476.166,49.373,19.815,51.743,48.425,2.347,28.633-18.251,51.672-43.589,55.82-23.963,3.935-46.955-7.988-56.744-30.387-2.3-5.262-4.906-6.921-10.477-6.9-70.279.19-140.557.118-210.836.19-2.3,0-5.665-1.47-6.684,1.28-.711,1.872,2.275,3.532,3.769,5.143,13.8,14.7,28.088,28.917,42.523,42.973,1.09,1.067,2.181,2.11,3.342,3.105a3,3,0,0,0,3.484.5c1.375-.593,2.75-1.233,4.172-1.8,28.254-11.591,64.329,3.247,71.322,38.849,6.495,33.089-18.773,60.418-47.477,62.2-28.894,1.825-50.416-17.493-55.441-41.267a53.214,53.214,0,0,1,1.517-27.59A38.59,38.59,0,0,1,256.668,311c1.327-2.512.521-4.266-1.351-5.949-1.114-1.019-2.133-2.157-3.2-3.224q-31.217-31.288-62.5-62.552c-1.067-1.09-2.133-2.133-3.224-3.2a9.693,9.693,0,0,0-6.8-2.8c-1.493.024-3.01-.024-4.527-.024q-54.042.036-108.061.071c-9.6,0-9.078-.758-9.078,8.889q0,152.634-.024,305.316c0,12.373,1.612,10.6-10.856,10.714-4.788.071-9.576,0-14.364-.047-1.754-.024-2.821-.853-2.844-2.726-.024-2.275-.047-4.527-.047-6.779Q29.714,447.009,29.714,345.371Z" transform="translate(663.94 457.11)" fill="#00a0fa" fill-rule="evenodd"/>
  </g>
</svg>
